<?xml version="1.0" encoding="UTF-8" standalone="no"?>
<svg width="16px" height="16px" viewBox="0 0 16 16" version="1.1" xmlns="http://www.w3.org/2000/svg" xmlns:xlink="http://www.w3.org/1999/xlink">
    <!-- Generator: Sketch 3.6.1 (26313) - http://www.bohemiancoding.com/sketch -->
    <title>BlocksIcon</title>
    <desc>Created with Sketch.</desc>
    <defs></defs>
    <g id="Page-1" stroke="none" stroke-width="1" fill="none" fill-rule="evenodd">
        <g id="BlocksIcon" fill="#AA0303">
            <path d="M12,4.548 C12,4.824 11.776,5 11.5,5 L4.5,5 C4.224,5 4,4.825 4,4.548 L4,2 L2,2 C1.45,2 1,2.499 1,3.048 L1,15.048 C1,15.598 1.45,16 2,16 L14,16 C14.55,16 15,15.598 15,15.048 L15,3.048 C15,2.498 14.55,2 14,2 L12,2 L12,4.548 Z M10.851,11.488 C11.046,11.683 11.046,12 10.851,12.195 L10.144,12.902 C9.949,13.097 9.632,13.097 9.437,12.902 L7.998,11.463 L6.564,12.897 C6.369,13.092 6.052,13.092 5.857,12.897 L5.15,12.19 C4.955,11.995 4.955,11.678 5.15,11.483 L6.584,10.049 L5.15,8.615 C4.955,8.42 4.955,8.103 5.15,7.908 L5.857,7.201 C6.052,7.006 6.369,7.006 6.564,7.201 L7.998,8.635 L9.437,7.196 C9.632,7.001 9.949,7.001 10.144,7.196 L10.851,7.903 C11.046,8.098 11.046,8.415 10.851,8.61 L9.412,10.049 L10.851,11.488 L10.851,11.488 Z M10,1 L9,1 C9,0 8.553,0 8,0 C7.447,0 7,0 7,1 L6,1 C5.354,1 5,1.465 5,2.048 L5,3.548 C5,3.824 5.224,4 5.5,4 L10.5,4 C10.776,4 11,3.825 11,3.548 L11,2.048 C11,1.465 10.729,1 10,1 L10,1 Z" id="Delete_From_Clipboard_1"></path>
        </g>
    </g>
</svg>