<?xml version="1.0" encoding="UTF-8" standalone="no"?>
<svg width="18px" height="12px" viewBox="0 0 18 12" version="1.1" xmlns="http://www.w3.org/2000/svg" xmlns:xlink="http://www.w3.org/1999/xlink" xmlns:sketch="http://www.bohemiancoding.com/sketch/ns">
    <title>Slice 1</title>
    <description>Created with Sketch (http://www.bohemiancoding.com/sketch)</description>
    <defs></defs>
    <g id="Page-1" stroke="none" stroke-width="1" fill="none" fill-rule="evenodd" sketch:type="MSPage">
        <path d="M14,8 C16.2091391,8 18,6.20913911 18,4 C18,1.79086089 16.2091391,0 14,0 C11.7908609,0 10,1.79086089 10,4 C10,6.20913911 11.7908609,8 14,8 Z M6.5,12 C7.88071194,12 9,10.8807119 9,9.5 C9,8.11928806 7.88071194,7 6.5,7 C5.11928806,7 4,8.11928806 4,9.5 C4,10.8807119 5.11928806,12 6.5,12 Z M1.5,7 C2.32842717,7 3,6.32842717 3,5.5 C3,4.67157283 2.32842717,4 1.5,4 C0.671572834,4 0,4.67157283 0,5.5 C0,6.32842717 0.671572834,7 1.5,7 Z" id="Oval-6" fill="#C042BE" sketch:type="MSShapeGroup"></path>
    </g>
</svg>