<?xml version="1.0" encoding="UTF-8" standalone="no"?>
<svg width="16px" height="16px" viewBox="0 0 16 16" version="1.1" xmlns="http://www.w3.org/2000/svg" xmlns:xlink="http://www.w3.org/1999/xlink" xmlns:sketch="http://www.bohemiancoding.com/sketch/ns">
    <title>Slice 1</title>
    <description>Created with Sketch (http://www.bohemiancoding.com/sketch)</description>
    <defs></defs>
    <g id="Page-1" stroke="none" stroke-width="1" fill="none" fill-rule="evenodd" sketch:type="MSPage">
        <path d="M8,16 C12.4182782,16 16,12.4182782 16,8 C16,3.58172178 12.4182782,0 8,0 C3.58172178,0 0,3.58172178 0,8 C0,12.4182782 3.58172178,16 8,16 Z M8,13.8666667 C11.2400707,13.8666667 13.8666667,11.2400707 13.8666667,8 C13.8666667,4.75992931 11.2400707,2.13333333 8,2.13333333 C4.75992931,2.13333333 2.13333333,4.75992931 2.13333333,8 C2.13333333,11.2400707 4.75992931,13.8666667 8,13.8666667 Z" id="Oval-64" fill="#459E1A" sketch:type="MSShapeGroup"></path>
        <rect id="Rectangle-115" fill="#459E1A" sketch:type="MSShapeGroup" x="7" y="5" width="2" height="5"></rect>
        <rect id="Rectangle-116" fill="#459E1A" sketch:type="MSShapeGroup" x="9" y="8" width="3" height="2"></rect>
    </g>
</svg>
