<?xml version="1.0" encoding="UTF-8" standalone="no"?>
<svg width="12px" height="17px" viewBox="0 0 12 17" version="1.1" xmlns="http://www.w3.org/2000/svg" xmlns:xlink="http://www.w3.org/1999/xlink" xmlns:sketch="http://www.bohemiancoding.com/sketch/ns">
    <title>Slice 1</title>
    <description>Created with Sketch (http://www.bohemiancoding.com/sketch)</description>
    <defs></defs>
    <g id="Page-1" stroke="none" stroke-width="1" fill="none" fill-rule="evenodd" sketch:type="MSPage">
        <path d="M5,5.82929431 L5,14.8739825 C3.59439261,14.5122043 2.48779573,13.4056074 2.12601746,12 L3,12 L3,11 L2,11 L1,11 L0,11 C0,14.3137087 2.68629134,17 6,17 C9.31370866,17 12,14.3137087 12,11 L11,11 L10,11 L9,11 L9,12 L9.87398254,12 C9.51220427,13.4056074 8.40560739,14.5122043 7,14.8739825 L7,14.8739825 L7,5.82929431 C8.16519241,5.41745793 9,4.3062189 9,3 C9,1.34314567 7.65685433,0 6,0 C4.34314567,0 3,1.34314567 3,3 C3,4.3062189 3.83480759,5.41745793 5,5.82929431 L5,5.82929431 Z M3,8 L3,9 L5,9 L5,8 L3,8 Z M7,8 L7,9 L9,9 L9,8 L7,8 Z M5,2 L5,4 L7,4 L7,2 L5,2 Z" id="Oval-14" fill="#BC4D88" sketch:type="MSShapeGroup"></path>
    </g>
</svg>