<?xml version="1.0" encoding="UTF-8" standalone="no"?>
<svg width="19px" height="17px" viewBox="0 0 19 17" version="1.1" xmlns="http://www.w3.org/2000/svg" xmlns:xlink="http://www.w3.org/1999/xlink" xmlns:sketch="http://www.bohemiancoding.com/sketch/ns">
    <title>Slice 1</title>
    <description>Created with Sketch (http://www.bohemiancoding.com/sketch)</description>
    <defs></defs>
    <g id="Page-1" stroke="none" stroke-width="1" fill="none" fill-rule="evenodd" sketch:type="MSPage">
        <path d="M18.0266196,5.81471087 L11.5425805,0.52340155 C10.6881103,-0.173890069 9.30415452,-0.175044059 8.44827021,0.52340155 L1.7627603,5.9791214 C1.67832635,6.04802385 1.59707753,6.13245366 1.52109628,6.22774866 L1.52109628,6.22774866 L4.06256149,8.11280313 C4.5288565,5.25302012 7.00953909,3.07295229 9.99542537,3.07295229 C12.752665,3.07295229 15.0831193,4.93949144 15.7817233,7.47979439 L17.9935252,5.83925768 L18.0266196,5.81471087 Z M18.6946857,6.56424257 C18.877813,6.89556977 18.9954254,7.27817611 18.9954254,7.60061584 L18.9954254,14.0651081 C18.9954254,14.5508904 18.8265276,14.9938526 18.5450221,15.3393799 L18.5450221,15.3393799 L15.9952654,12.6949587 C15.9953719,12.688655 15.9954254,12.6823668 15.9954254,12.676095 L15.9954254,9.07011148 C15.9954254,8.9054269 15.9887676,8.7422927 15.9757075,8.58096184 L18.5892602,6.64243868 L18.6946857,6.56424257 Z M1.0648603,7.13439886 C1.02027809,7.29650546 0.995425365,7.45573444 0.995425365,7.60061584 L0.995425365,14.0651081 C0.995425365,14.3723529 1.0639507,14.6634796 1.18647842,14.923833 L1.18647842,14.923833 L3.9777626,12.2101033 L3.9777626,12.2101033 L3.98338972,9.29912925 L1.0648603,7.13439886 L1.0648603,7.13439886 Z M4.15948206,13.4070273 L1.80647846,15.6814831 C2.13758732,15.9275177 2.54707631,16.0729523 2.99051466,16.0729523 L6.97214044,16.0729523 C6.85608406,15.500863 6.68033815,15.006037 6.17608943,14.7671795 C4.52564996,13.9853832 4.87569701,14.1483583 4.87569701,14.1483583 C4.58382866,14.0081513 4.32383694,13.7271888 4.15948206,13.4070273 L4.15948206,13.4070273 Z M13.0391034,16.0729523 L17.0003361,16.0729523 C17.2703227,16.0729523 17.5277836,16.0194759 17.7626475,15.922295 L15.6043582,13.7034256 C15.4617756,13.8873444 15.2896431,14.0418081 15.104294,14.1385694 C15.104294,14.1385694 15.1518218,14.1489539 13.7747222,14.7671794 C13.2997762,14.9803984 13.1480424,15.4831612 13.0391034,16.0729523 L13.0391034,16.0729523 Z M1.39892538,15.276232 C1.47376678,15.3757102 1.55760762,15.467951 1.64923199,15.5517276 L1.39892538,15.276232 L1.39892538,15.276232 Z" id="Rectangle-2" fill="#E04427" sketch:type="MSShapeGroup"></path>
        <path d="M7.81785448,15 C7.78421782,14.4991362 7.71359619,14.0410312 7.2310791,13.8181818 C5.85571288,13.1829723 5.89886814,13.1830966 5.89886814,13.1830966 C5.40114633,12.9343797 5,12.2790519 5,11.7261436 L5,9.00080893 C5,6.24748958 7.23857625,4 10,4 C12.7558048,4 15,6.23893842 15,9.00080893 L15,11.7261436 C15,12.2824877 14.59914,12.9236381 14.1046542,13.1658672 C14.1046542,13.1658672 13.835083,13.3158736 12.6875,13.8181818 C12.2338602,14.0167444 12.1937049,14.4834746 12.1723067,15 L7.81785448,15 L7.81785448,15 Z M7.94635588,16 C8.12461618,16.5599127 8.60124783,17.0000003 10,17 C11.3782344,16.9999996 11.8664964,16.5588614 12.0493861,16 L7.94635588,16 L7.94635588,16 Z M10.8074109,10 C10.9136596,10.5522847 11.3843775,11 11.8676915,11 C11.8676915,11 12.080025,11 12.2923584,11 C12.5153349,11 12.7383115,11 12.7383115,11 C13.2176396,11 13.6986195,10.5561352 13.8144007,10 C13.9293802,9.44771525 13.5197925,9 12.8879218,9 L11.7496984,9 C11.1230387,9 10.7004215,9.44386482 10.8074109,10 Z M6.26399896,10 C6.37024766,10.5522847 6.84096559,11 7.32427958,11 L8.19489955,11 C8.67422766,11 9.15520759,10.5561352 9.27098875,10 C9.38596829,9.44771525 8.97638056,9 8.34450983,9 L7.20628646,9 C6.57962674,9 6.15700951,9.44386482 6.26399896,10 Z M10,11 L10.5526475,12.1052949 C10.7997135,12.5994269 10.5561352,13 10,13 C9.44771525,13 9.20236492,12.5952702 9.44735253,12.1052949 L10,11 Z" id="Rectangle-33" fill="#E04427" sketch:type="MSShapeGroup"></path>
    </g>
</svg>