<?xml version="1.0" encoding="UTF-8" standalone="no"?>
<svg width="18px" height="16px" viewBox="0 0 18 16" version="1.1" xmlns="http://www.w3.org/2000/svg" xmlns:xlink="http://www.w3.org/1999/xlink" xmlns:sketch="http://www.bohemiancoding.com/sketch/ns">
    <title>Slice 1</title>
    <description>Created with Sketch (http://www.bohemiancoding.com/sketch)</description>
    <defs></defs>
    <g id="Page-1" stroke="none" stroke-width="1" fill="none" fill-rule="evenodd" sketch:type="MSPage">
        <path d="M13,8 L13,10 L18,10 L18,8 L13,8 Z M10.3690961,9.19580472 C10.3690961,8.31483779 11.0498195,8.60258534 11.3485855,6.989318 C11.4726493,6.32013758 12.0737983,6.97846643 12.1888195,5.45074564 C12.1888195,4.84179145 11.8607557,4.69059286 11.8607557,4.69059286 C11.8607557,4.69059286 12.0275004,3.7895505 12.0927876,3.09613489 C12.173628,2.23216873 11.5936387,0 8.4998194,0 C5.40600014,0 4.82564919,2.23216882 4.90685121,3.09613489 C4.97213844,3.7895505 5.13888312,4.69059286 5.13888312,4.69059286 C5.13888312,4.69059286 4.81081929,4.84179146 4.81081929,5.45074564 C4.92565971,6.97846635 5.52680867,6.32013762 5.65087248,6.989318 C5.95000015,8.60240445 6.63036182,8.31483779 6.63036182,9.19580472 C6.63036182,10.6631184 5.91817034,11.3483954 3.68900013,12.1609975 C1.45277677,12.9759507 0,13.8068196 0,14.3734525 L0,15.996582 L17,15.996582 L17,14.3734525 C16.9998105,13.8068151 15.5470413,12.9759473 13.3108197,12.1609975 C11.0816494,11.3483954 10.3690961,10.6631186 10.3690961,9.19580472 Z" id="Rectangle-11" fill="#3E44C0" sketch:type="MSShapeGroup"></path>
    </g>
</svg>